<svg width="250" height="250" viewBox="0 0 250 250" fill="none" xmlns="http://www.w3.org/2000/svg">
<path d="M122.3 71.24H122.29C117.63 71.24 116.33 74.97 116.33 77.32C116.33 80.59 118.59 83.78 122.32 83.78H122.33C126.66 83.78 128.38 80.27 128.38 77.5C128.38 74.54 126.52 71.24 122.3 71.24Z" fill="url(#paint0_linear_2091_2)"/>
<path d="M48.72 91.81H45.82C43.38 91.81 42.59 93.01 42.59 95.45V121.48C42.59 130.88 39.49 134.97 30.01 134.97C21.32 134.97 16.77 131.46 16.77 121.48V96.33C16.77 93.27 15.64 91.81 13.11 91.81H10.81C7.91 91.81 7.46 93.36 7.46 95.45V122.85C7.46 135.81 14.78 143.13 28.92 143.13H29.36C44.21 143.13 51.89 136.23 51.89 122.85V95.45C51.89 93.01 50.85 91.81 48.72 91.81Z" fill="url(#paint1_linear_2091_2)"/>
<path d="M84.76 90.44H84.32C70.77 90.44 62.43 96.51 62.43 110.75V138.7C62.43 141.42 63.31 142.46 65.85 142.46H67.71C70.42 142.46 71.21 141.33 71.21 138.7V112.12C71.21 103.18 74.72 99.56 84.59 99.56C94.25 99.56 97.67 103.36 97.67 112.12V138.7C97.67 141.33 98.55 142.46 101.18 142.46H103.62C106.25 142.46 106.87 141.33 106.87 138.7V111.5C106.87 97.26 98.89 90.44 84.76 90.44Z" fill="url(#paint2_linear_2091_2)"/>
<path d="M123.2 91.63H121.07C118.72 91.63 117.84 92.42 117.84 94.87V138.7C117.84 141.33 118.72 142.46 121.07 142.46H123.2C125.74 142.46 126.71 141.33 126.71 138.7V94.87C126.71 92.42 125.65 91.63 123.2 91.63Z" fill="url(#paint3_linear_2091_2)"/>
<path d="M238.6 91.63H236.74C234.11 91.63 233.15 92.68 233.15 95.22V120.72C233.15 130.46 229.54 135.01 219.29 135.01C210.35 135.01 206.55 130.92 206.55 120.94V95.89C206.55 93.01 205.58 91.63 203.23 91.63H200.52C197.89 91.63 197.1 92.92 197.1 95.89V122.94C197.1 135.72 204.69 143.22 219.38 143.22H219.82C234.68 143.22 242.18 135.81 242.18 122.94V95.22C242.18 92.68 241.04 91.63 238.6 91.63Z" fill="url(#paint4_linear_2091_2)"/>
<path d="M188.6 138.8L183.45 134.71C188.51 128.29 188.95 122.22 188.33 114.72C186.2 101.42 176.33 90.45 162.45 90.45H162.01C147.41 90.45 135.31 101.77 135.31 117.2C135.31 131.89 146.19 143.58 162.1 143.58C168.17 143.58 172.81 141.72 176.78 139.27L182.11 144.08L181.32 146.12L193.18 159.33C195.72 162.05 198.17 161.43 200.61 158.71C203.42 156.08 202.63 153.27 200.36 151.05L188.6 138.8ZM162.63 134.93C152.01 134.93 144.51 126.17 144.51 116.77C144.51 106.43 153.02 99.22 162.05 99.22C172.81 99.22 179.8 108.34 179.8 117.28C179.8 126.77 172.03 134.93 162.63 134.93Z" fill="url(#paint5_linear_2091_2)"/>
<path d="M162 103.4C160.63 103.4 159.84 104.1 159.84 105.24C159.84 106.45 160.63 107.15 162 107.15C168.24 107.15 172.11 112.76 172.11 117.23C172.11 118.69 172.72 118.95 173.6 118.95C174.8 118.95 174.89 117.99 174.89 116.71C174.89 109.12 169.36 103.4 162 103.4Z" fill="url(#paint6_linear_2091_2)"/>
<path d="M132.3 150.3L160.11 151.94L145.08 177.08L143.31 168.32C130.1 174.92 116.05 177.81 100.1 177.81C72.88 177.81 51.1 169.47 31.8 151.16C48.71 163.95 67.92 170.11 92.02 170.11C108.76 170.11 124.01 166.02 137.65 158.6L132.3 150.3Z" fill="url(#paint7_linear_2091_2)"/>
<defs>
<linearGradient id="paint0_linear_2091_2" x1="122.3" y1="71.24" x2="122.3" y2="83.78" gradientUnits="userSpaceOnUse">
<stop stop-color="#CAB40A"/>
<stop offset="1" stop-color="#B7A10D"/>
</linearGradient>
<linearGradient id="paint1_linear_2091_2" x1="29.68" y1="91.81" x2="29.68" y2="143.1" gradientUnits="userSpaceOnUse">
<stop stop-color="#CAB40A"/>
<stop offset="1" stop-color="#B7A10D"/>
</linearGradient>
<linearGradient id="paint2_linear_2091_2" x1="84.65" y1="90.44" x2="84.65" y2="142.5" gradientUnits="userSpaceOnUse">
<stop stop-color="#CAB40A"/>
<stop offset="1" stop-color="#B7A10D"/>
</linearGradient>
<linearGradient id="paint3_linear_2091_2" x1="122.2" y1="91.63" x2="122.2" y2="142.5" gradientUnits="userSpaceOnUse">
<stop stop-color="#CAB40A"/>
<stop offset="1" stop-color="#B7A10D"/>
</linearGradient>
<linearGradient id="paint4_linear_2091_2" x1="219.7" y1="91.63" x2="219.7" y2="143.2" gradientUnits="userSpaceOnUse">
<stop stop-color="#CAB40A"/>
<stop offset="1" stop-color="#B7A10D"/>
</linearGradient>
<linearGradient id="paint5_linear_2091_2" x1="162" y1="90.44" x2="162" y2="160.9" gradientUnits="userSpaceOnUse">
<stop stop-color="#CAB40A"/>
<stop offset="1" stop-color="#B7A10D"/>
</linearGradient>
<linearGradient id="paint6_linear_2091_2" x1="167.4" y1="103.4" x2="167.4" y2="118.9" gradientUnits="userSpaceOnUse">
<stop stop-color="#CAB40A"/>
<stop offset="1" stop-color="#B7A10D"/>
</linearGradient>
<linearGradient id="paint7_linear_2091_2" x1="95.97" y1="150.3" x2="95.97" y2="177.8" gradientUnits="userSpaceOnUse">
<stop stop-color="#CAB40A"/>
<stop offset="1" stop-color="#B7A10D"/>
</linearGradient>
</defs>
</svg>
