<svg width="49" height="20" viewBox="0 0 49 20" fill="none" xmlns="http://www.w3.org/2000/svg">
<path d="M48.1613 11.736V9.55198H46.2413V11.64C46.2413 12.664 45.9693 13.4 45.4253 13.848C44.8813 14.296 44.1293 14.52 43.1693 14.52C42.5293 14.52 41.9853 14.456 41.5373 14.328C41.0893 14.184 40.7373 14.04 40.4813 13.896V9.55198H38.5613V13.824C38.5613 14.16 38.6093 14.432 38.7053 14.64C38.7853 14.832 38.9933 15.024 39.3293 15.216C39.6813 15.424 40.1853 15.624 40.8413 15.816C41.4973 16.008 42.2813 16.104 43.1933 16.104C44.2493 16.104 45.1533 15.952 45.9053 15.648C46.6413 15.328 47.2013 14.848 47.5853 14.208C47.9693 13.552 48.1613 12.728 48.1613 11.736ZM38.5613 10.8H40.4813V4.75198C40.4013 4.71998 40.2813 4.68798 40.1213 4.65598C39.9453 4.60798 39.7693 4.58398 39.5933 4.58398C39.2413 4.58398 38.9853 4.65598 38.8253 4.79998C38.6493 4.92798 38.5613 5.15198 38.5613 5.47198V10.8ZM46.2413 10.8H48.1613V4.75198C48.0813 4.71998 47.9613 4.68798 47.8013 4.65598C47.6253 4.60798 47.4413 4.58398 47.2493 4.58398C46.9133 4.58398 46.6653 4.65598 46.5053 4.79998C46.3293 4.92798 46.2413 5.15198 46.2413 5.47198V10.8Z" fill="#C5AE00"/>
<path d="M22.8626 1.2C22.8626 0.864001 22.9826 0.584002 23.2226 0.360002C23.4626 0.120001 23.7586 0 24.1106 0C24.4786 0 24.7746 0.120001 24.9986 0.360002C25.2226 0.584002 25.3346 0.864001 25.3346 1.2C25.3346 1.536 25.2226 1.824 24.9986 2.064C24.7746 2.288 24.4786 2.4 24.1106 2.4C23.7586 2.4 23.4626 2.288 23.2226 2.064C22.9826 1.824 22.8626 1.536 22.8626 1.2ZM23.1506 9.456H25.0706V15.744C24.9906 15.776 24.8706 15.808 24.7106 15.84C24.5506 15.888 24.3746 15.912 24.1826 15.912C23.8466 15.912 23.5906 15.848 23.4146 15.72C23.2386 15.576 23.1506 15.352 23.1506 15.048V9.456ZM25.0706 10.392H23.1506V4.752C23.2306 4.72 23.3506 4.688 23.5106 4.656C23.6866 4.608 23.8706 4.584 24.0626 4.584C24.3986 4.584 24.6466 4.656 24.8066 4.8C24.9826 4.928 25.0706 5.152 25.0706 5.472V10.392Z" fill="#C5AE00"/>
<path d="M21.1153 8.472V10.92H19.1953V8.568C19.1953 7.672 18.9393 7.016 18.4273 6.6C17.9313 6.184 17.2593 5.976 16.4113 5.976C15.7713 5.976 15.2033 6.056 14.7073 6.216C14.2113 6.376 13.7873 6.56 13.4353 6.768V10.92H11.5153V6.864C11.5153 6.528 11.5793 6.256 11.7073 6.048C11.8513 5.824 12.0913 5.608 12.4273 5.4C12.8433 5.16 13.3953 4.936 14.0833 4.728C14.7713 4.504 15.5473 4.392 16.4113 4.392C17.8673 4.392 19.0113 4.728 19.8433 5.4C20.6913 6.056 21.1153 7.08 21.1153 8.472ZM11.5153 9.6H13.4353V19.744C13.3553 19.776 13.2353 19.808 13.0753 19.84C12.9153 19.888 12.7393 19.912 12.5473 19.912C12.2113 19.912 11.9553 19.848 11.7793 19.72C11.6033 19.576 11.5153 19.352 11.5153 19.048L11.5153 9.6ZM19.1953 9.6H21.1153V15.744C21.0353 15.776 20.9073 15.808 20.7313 15.84C20.5713 15.888 20.4033 15.912 20.2273 15.912C19.8753 15.912 19.6113 15.848 19.4353 15.72C19.2753 15.576 19.1953 15.352 19.1953 15.048V9.6Z" fill="#C5AE00"/>
<path d="M0 11.736V9.55198H1.92V11.64C1.92 12.664 2.192 13.4 2.736 13.848C3.28 14.296 4.032 14.52 4.992 14.52C5.632 14.52 6.176 14.456 6.624 14.328C7.072 14.184 7.424 14.04 7.68 13.896V9.55198H9.6V13.824C9.6 14.16 9.552 14.432 9.456 14.64C9.376 14.832 9.168 15.024 8.832 15.216C8.48 15.424 7.976 15.624 7.32 15.816C6.664 16.008 5.88 16.104 4.968 16.104C3.912 16.104 3.008 15.952 2.256 15.648C1.52 15.328 0.96 14.848 0.576 14.208C0.192 13.552 0 12.728 0 11.736ZM9.6 10.8H7.68V4.75198C7.76 4.71998 7.88 4.68798 8.04 4.65598C8.216 4.60798 8.392 4.58398 8.568 4.58398C8.92 4.58398 9.176 4.65598 9.336 4.79998C9.512 4.92798 9.6 5.15198 9.6 5.47198V10.8ZM1.92 10.8H0V4.75198C0.08 4.71998 0.2 4.68798 0.36 4.65598C0.536 4.60798 0.72 4.58398 0.912 4.58398C1.248 4.58398 1.496 4.65598 1.656 4.79998C1.832 4.92798 1.92 5.15198 1.92 5.47198V10.8Z" fill="#C5AE00"/>
<path d="M27 8.472V10.92H28.92V8.568C28.92 7.672 29.176 7.016 29.688 6.6C30.184 6.184 30.856 5.976 31.704 5.976C32.344 5.976 32.912 6.056 33.408 6.216C33.904 6.376 34.328 6.56 34.68 6.768V10.92H36.6V6.864C36.6 6.528 36.536 6.256 36.408 6.048C36.264 5.824 36.024 5.608 35.688 5.4C35.272 5.16 34.72 4.936 34.032 4.728C33.344 4.504 32.568 4.392 31.704 4.392C30.248 4.392 29.104 4.728 28.272 5.4C27.424 6.056 27 7.08 27 8.472ZM36.6 9.6H34.68V19.744C34.76 19.776 34.88 19.808 35.04 19.84C35.2 19.888 35.376 19.912 35.568 19.912C35.904 19.912 36.16 19.848 36.336 19.72C36.512 19.576 36.6 19.352 36.6 19.048L36.6 9.6ZM28.92 9.6H27V15.744C27.08 15.776 27.208 15.808 27.384 15.84C27.544 15.888 27.712 15.912 27.888 15.912C28.24 15.912 28.504 15.848 28.68 15.72C28.84 15.576 28.92 15.352 28.92 15.048V9.6Z" fill="#C5AE00"/>
</svg>
